<svg xmlns="http://www.w3.org/2000/svg" width="104" height="49" viewBox="0 0 104 49"><defs><style>.a{fill:#fff;}</style></defs><path class="a" d="M394.448,336.2a7.82,7.82,0,0,1-2.128,1.207c-.091.036-.184.057-.277.088a22.2,22.2,0,0,1-12.712,25.287c.424-.128.842-.27,1.26-.427A22.21,22.21,0,0,0,394.448,336.2Zm-8.666-12.728a22.442,22.442,0,0,0-20.892-2.758c-.418.156-.831.327-1.236.5a22.461,22.461,0,0,1,20.3,3.679A7.691,7.691,0,0,1,385.782,323.471Z" transform="translate(-300.108 -314.27)"/><path class="a" d="M423.233,315.66l-3.868-14.124,5.13,13.69,5.259-6.895-4.135,7.6,6.566-.406-6.423,1.72L438.5,330.795l-13.678-12.614-2.006,9.464.682-9.613-11.781,5.681,11.078-6.8-6.075-3.162Z" transform="translate(-334.497 -301.535)"/><g transform="translate(0 23.603)"><path class="a" d="M144.931,408.586a20.456,20.456,0,0,0,2.507.236c1.152,0,1.389-.1,1.389-1.719V390.161h-2.134c-1.762,0-3.49,0-3.49,2.9a14.124,14.124,0,0,0,.169,2.022h-3.117V387.5c2.744.1,6.438.235,11.181.235s8.436-.135,11.181-.235v7.579H159.5a14.21,14.21,0,0,0,.169-2.022c0-2.9-1.728-2.9-3.49-2.9h-2.135V407.1c0,1.618.238,1.719,1.389,1.719a20.461,20.461,0,0,0,2.507-.236v2.9c-2.134-.1-4.235-.236-6.505-.236s-4.371.135-6.505.236Z" transform="translate(-140.255 -386.793)"/><path class="a" d="M256.871,400.46c-.813-.1-1.491-.236-2-.236s-.746.134-.746,1.078v6.9a26.046,26.046,0,0,1-9.894,2.19c-8.707,0-12.739-5.861-12.739-12.53,0-7.377,5.048-12.867,14.027-12.867a31.807,31.807,0,0,1,8.03,1.347v6.939h-3.219a14.806,14.806,0,0,0,.169-2.156c0-1.853-.779-3.7-4.642-3.7-8.131,0-8.2,7.982-8.2,10.98,0,1.011.2,9.566,7.251,9.566a9.242,9.242,0,0,0,4.1-1.044V401.3c0-.809-.441-1.078-1.22-1.078-.813,0-1.931.168-2.744.236V397.7c2.033.1,4.1.236,6.132.236,1.9,0,3.795-.134,5.692-.236Z" transform="translate(-205.542 -384.999)"/><path class="a" d="M333.689,402.043h3.253a25.224,25.224,0,0,0-.2,2.729c0,1.853,1.863,3.2,5.455,3.2s5.286-2.021,5.286-3.941c0-2.324-2.067-3.031-3.388-3.5l-4.337-1.515c-3.524-1.246-6.031-2.863-6.031-6.669,0-5.255,5.421-7.343,9.893-7.343a22.545,22.545,0,0,1,7.454,1.381v6.1h-3.253c.068-.64.2-1.616.2-2.088,0-2.122-2.067-2.864-4.54-2.864-2.745,0-4.947,1.213-4.947,3.3,0,2.021,1.253,2.661,3.523,3.436l3.693,1.246c2.847.943,6.811,2.257,6.811,6.939,0,3.874-2.813,7.95-10.741,7.95a30.271,30.271,0,0,1-8.132-1.448Z" transform="translate(-278.666 -384.999)"/></g><g transform="translate(88.719 45.997)"><path class="a" d="M455.186,465.658a1.519,1.519,0,1,1-1.514-1.469A1.481,1.481,0,0,1,455.186,465.658Zm-2.658,0a1.142,1.142,0,0,0,1.153,1.174,1.128,1.128,0,0,0,1.126-1.164,1.141,1.141,0,1,0-2.28-.009Zm.911.77H453.1v-1.469a3.009,3.009,0,0,1,.567-.045.924.924,0,0,1,.513.107.406.406,0,0,1,.144.322.377.377,0,0,1-.306.341v.018a.434.434,0,0,1,.27.358,1.112,1.112,0,0,0,.108.367h-.37a1.254,1.254,0,0,1-.117-.358c-.027-.161-.117-.233-.306-.233h-.162Zm.009-.833h.162c.189,0,.342-.062.342-.215,0-.134-.1-.224-.315-.224a.818.818,0,0,0-.189.018Z" transform="translate(-452.149 -464.189)"/></g></svg>